<svg width="884" height="719" viewBox="0 0 884 719" fill="none" xmlns="http://www.w3.org/2000/svg">
<ellipse cx="433.5" cy="283.5" rx="307.5" ry="283.5" fill="url(#paint0_linear_302_5561)"/>
<path d="M740.5 283.5C740.5 439.759 603.09 566.5 433.5 566.5C263.91 566.5 126.5 439.759 126.5 283.5C126.5 127.241 263.91 0.5 433.5 0.5C603.09 0.5 740.5 127.241 740.5 283.5Z" stroke="#0087CF" stroke-opacity="0.2"/>
<path d="M608.015 29H257.515L236.514 135C307.514 135 424.331 135.832 436.014 133C452.514 129 413.013 162 374.514 206.5C349.424 235.5 339.514 243.5 308.514 293.5C285.265 331 274.514 355 263.515 384C259.217 395.331 245.514 439.5 245.514 464C248.014 466.5 311.5 459.6 311.5 456C340 450 353.519 446 363.014 441C375.519 358.5 409.514 313 409.514 313C409.514 313 471.57 219.964 490.514 198C525.013 158 552.847 136.667 592.014 112.5L608.015 29Z" fill="#FFF3EA" fill-opacity="0.85"/>
<path d="M691.514 215C698.515 229 689.014 247.5 683.014 251H624.014C606.68 252.833 575.052 261.378 569.014 263.5C550.514 270 544.164 283 541.014 290C537.863 297 538.014 313 559.514 316.5C579.254 319.714 584.07 321.952 599.515 316.5C608.014 313.5 613.514 306.5 620.014 297C629.8 282.7 627.014 281 632.014 276C638.279 269.735 645.514 260.5 657.014 260.5C663.513 260.5 674.514 257.545 678.514 267C680.245 271.093 678.014 280 674.514 290C665.495 315.768 653.523 341.413 649.743 349.509L649.514 350C645.919 357.703 631.629 408.002 627.014 423C623.013 436 622.848 438.5 616.014 443C600.181 441.667 580.514 445 573.514 443C563.158 440.041 572.514 422.501 572.514 416C572.514 413 597.514 349 586.014 360C573.327 372.136 527.008 426.015 512.514 436.5C489.014 453.5 428.846 486.072 422.014 489C397.514 499.5 344.514 514 335.514 517.5C323.425 522.201 263.515 522.5 263.515 522.5C251.514 512 240.853 506.774 234.514 496C229.514 487.5 230.014 487.486 230.014 479C230.014 471 236.014 470.833 245.514 474.5H274.014C289.514 474.301 337 465 345.5 462C382.5 453 403.015 440 413.514 436.5C419.458 434.519 474.929 408.526 489.015 397C500.014 388 543.514 354.5 536.514 350C528.943 345.133 510.014 347.5 504.014 343C496.247 337.175 490.296 326.138 489.015 313C485.015 272 506.014 252.557 515.514 242C529.014 227 582.188 210.921 590.514 209C610.014 204.5 624.514 204.5 639.514 204.5C652.173 204.5 687.513 207 691.514 215Z" fill="#FFF3EA" fill-opacity="0.85"/>
<path d="M409.514 370C414.319 359.648 415.514 353.667 422.014 350C442.348 351.167 484.215 350 489.015 350C495.015 350 487.291 366.5 481.514 379.5C478.847 385.5 475.132 393 471.014 393H442.014H415.514C399.014 393 403.015 384 409.514 370Z" fill="#FFF3EA" fill-opacity="0.85"/>
<path d="M608.015 29H257.515L236.514 135C307.514 135 424.331 135.832 436.014 133C452.514 129 413.013 162 374.514 206.5C349.424 235.5 339.514 243.5 308.514 293.5C285.265 331 274.514 355 263.515 384C259.217 395.331 245.514 439.5 245.514 464C248.014 466.5 311.5 459.6 311.5 456C340 450 353.519 446 363.014 441C375.519 358.5 409.514 313 409.514 313C409.514 313 471.57 219.964 490.514 198C525.013 158 552.847 136.667 592.014 112.5L608.015 29Z" stroke="white"/>
<path d="M691.514 215C698.515 229 689.014 247.5 683.014 251H624.014C606.68 252.833 575.052 261.378 569.014 263.5C550.514 270 544.164 283 541.014 290C537.863 297 538.014 313 559.514 316.5C579.254 319.714 584.07 321.952 599.515 316.5C608.014 313.5 613.514 306.5 620.014 297C629.8 282.7 627.014 281 632.014 276C638.279 269.735 645.514 260.5 657.014 260.5C663.513 260.5 674.514 257.545 678.514 267C680.245 271.093 678.014 280 674.514 290C665.495 315.768 653.523 341.413 649.743 349.509L649.514 350C645.919 357.703 631.629 408.002 627.014 423C623.013 436 622.848 438.5 616.014 443C600.181 441.667 580.514 445 573.514 443C563.158 440.041 572.514 422.501 572.514 416C572.514 413 597.514 349 586.014 360C573.327 372.136 527.008 426.015 512.514 436.5C489.014 453.5 428.846 486.072 422.014 489C397.514 499.5 344.514 514 335.514 517.5C323.425 522.201 263.515 522.5 263.515 522.5C251.514 512 240.853 506.774 234.514 496C229.514 487.5 230.014 487.486 230.014 479C230.014 471 236.014 470.833 245.514 474.5H274.014C289.514 474.301 337 465 345.5 462C382.5 453 403.015 440 413.514 436.5C419.458 434.519 474.929 408.526 489.015 397C500.014 388 543.514 354.5 536.514 350C528.943 345.133 510.014 347.5 504.014 343C496.247 337.175 490.296 326.138 489.015 313C485.015 272 506.014 252.557 515.514 242C529.014 227 582.188 210.921 590.514 209C610.014 204.5 624.514 204.5 639.514 204.5C652.173 204.5 687.513 207 691.514 215Z" stroke="white"/>
<path d="M409.514 370C414.319 359.648 415.514 353.667 422.014 350C442.348 351.167 484.215 350 489.015 350C495.015 350 487.291 366.5 481.514 379.5C478.847 385.5 475.132 393 471.014 393H442.014H415.514C399.014 393 403.015 384 409.514 370Z" stroke="white"/>
<path d="M678 99C714.681 142.442 744.606 204.323 750.472 259.135C756.337 313.947 745.245 369.17 718.481 418.397C691.718 467.624 650.38 508.836 599.266 537.251C548.152 565.666 489.357 580.119 429.703 578.932C370.049 577.746 311.983 560.968 262.242 530.547C212.501 500.126 173.125 457.308 148.684 407.063C124.243 356.817 115.738 301.204 124.156 246.676C132.575 192.149 157.571 140.943 196.245 99" stroke="#FDFDFD" stroke-opacity="0.6" stroke-width="3" stroke-linecap="round" stroke-linejoin="round"/>
<path d="M774 17C824.516 79.8092 866.817 169.28 874.895 248.528C882.973 327.777 867.697 407.621 830.839 478.795C793.981 549.969 737.052 609.555 666.658 650.638C596.265 691.722 515.293 712.618 433.139 710.902C350.985 709.187 271.017 684.929 202.515 640.945C134.013 596.961 79.786 535.054 46.1259 462.407C12.4657 389.761 0.752881 309.353 12.3465 230.515C23.9402 151.677 58.365 77.642 111.626 17" stroke="#FDFDFD" stroke-opacity="0.6" stroke-width="3" stroke-linecap="round"/>
<path d="M777.696 12C828.852 75.8047 871.688 166.694 879.868 247.198C888.049 327.703 872.579 408.812 835.255 481.115C797.93 553.417 740.28 613.947 668.996 655.682C597.711 697.416 515.714 718.644 432.52 716.901C349.326 715.158 268.346 690.516 198.977 645.835C129.609 601.154 74.6947 538.265 40.6085 464.467C6.52225 390.669 -5.33885 308.987 6.40154 228.899C18.1419 148.812 53.0025 73.6031 106.938 12" stroke="#FDFDFD" stroke-opacity="0.6" stroke-width="3" stroke-linecap="round"/>
<defs>
<linearGradient id="paint0_linear_302_5561" x1="433.5" y1="0" x2="433.5" y2="567" gradientUnits="userSpaceOnUse">
<stop offset="0.137063" stop-color="#0069B1" stop-opacity="0.33"/>
<stop offset="1" stop-color="#00AFFA" stop-opacity="0.61"/>
</linearGradient>
</defs>
</svg>
