<svg width="884" height="719" viewBox="0 0 884 719" fill="none" xmlns="http://www.w3.org/2000/svg">
<ellipse cx="443.5" cy="283.5" rx="307.5" ry="283.5" fill="url(#paint0_linear_263_5561)"/>
<path d="M750.5 283.5C750.5 439.759 613.09 566.5 443.5 566.5C273.91 566.5 136.5 439.759 136.5 283.5C136.5 127.241 273.91 0.5 443.5 0.5C613.09 0.5 750.5 127.241 750.5 283.5Z" stroke="#0087CF" stroke-opacity="0.2"/>
<path d="M678 99C714.681 142.442 744.606 204.323 750.472 259.135C756.337 313.947 745.245 369.17 718.481 418.397C691.718 467.624 650.38 508.836 599.266 537.251C548.152 565.666 489.357 580.119 429.703 578.932C370.049 577.746 311.983 560.968 262.242 530.547C212.501 500.126 173.125 457.308 148.684 407.063C124.243 356.817 115.738 301.204 124.156 246.676C132.575 192.149 157.571 140.943 196.245 99" stroke="#FDFDFD" stroke-opacity="0.6" stroke-width="3" stroke-linecap="round" stroke-linejoin="round"/>
<path d="M774 17C824.516 79.8092 866.817 169.28 874.895 248.528C882.973 327.777 867.697 407.621 830.839 478.795C793.981 549.969 737.052 609.555 666.658 650.638C596.265 691.722 515.293 712.618 433.139 710.902C350.985 709.187 271.017 684.929 202.515 640.945C134.013 596.961 79.786 535.054 46.1259 462.407C12.4657 389.761 0.752881 309.353 12.3465 230.515C23.9402 151.677 58.365 77.642 111.626 17" stroke="#FDFDFD" stroke-opacity="0.6" stroke-width="3" stroke-linecap="round"/>
<path d="M777.696 12C828.852 75.8047 871.688 166.694 879.868 247.198C888.049 327.703 872.579 408.812 835.255 481.115C797.93 553.417 740.28 613.947 668.996 655.682C597.711 697.416 515.714 718.644 432.52 716.901C349.326 715.158 268.346 690.516 198.977 645.835C129.609 601.154 74.6947 538.265 40.6085 464.467C6.52225 390.669 -5.33885 308.987 6.40154 228.899C18.1419 148.812 53.0025 73.6031 106.938 12" stroke="#FDFDFD" stroke-opacity="0.6" stroke-width="3" stroke-linecap="round"/>
<defs>
<linearGradient id="paint0_linear_263_5561" x1="443.5" y1="0" x2="443.5" y2="567" gradientUnits="userSpaceOnUse">
<stop offset="0.137063" stop-color="#0069B1" stop-opacity="0.33"/>
<stop offset="1" stop-color="#00AFFA" stop-opacity="0.61"/>
</linearGradient>
</defs>
</svg>
