<svg width="48" height="48" viewBox="0 0 48 48" fill="none" xmlns="http://www.w3.org/2000/svg">
<g filter="url(#filter0_d_38_2860)">
<path d="M11.5456 3.87714C13.6621 1.98067 18.9536 0.449318 22.1285 0.0841143C25.8326 -0.341972 30.4185 0.946041 32.1823 1.80825C32.5503 1.98811 35.5337 3.18764 37.1211 4.73929C38.5322 6.11868 40.2581 7.78105 40.8251 8.7048C42.095 10.7737 44 14.0494 44 17.4978C44 18.3731 43.9296 21.463 43.2945 22.4979C42.7654 23.3601 41.2839 26.876 41.0014 27.8427C40.6487 29.0496 39.5904 33.0152 39.2376 33.7047C38.9029 34.359 38.1794 34.7392 37.8265 34.7392C36.7536 34.7392 33.9851 35.0151 33.6323 34.7392C32.6392 33.9625 32.7504 32.389 32.3587 32.6703C31.5157 33.2759 30.6338 34.0912 30.0657 34.3944C29.7195 34.5791 24.1194 37.2268 23.3632 37.6703C22.4812 38.1876 18.3124 39.5713 17.5426 39.7392C16.3468 40 15.465 40 14.4066 40C12.8191 40 12.4275 39.222 11.8984 39.0496C10.7154 38.6639 10.84 38.5324 10.3108 38.1875C9.87053 37.9006 8.89973 36.8083 8.89973 36.1186C8.89973 35.4289 9.25256 34.7392 9.25256 34.7392C9.25256 34.7392 9.95803 34.0496 9.95803 33.7047C9.95803 32.6994 7.13571 31.1187 6.25405 28.8772C5.77933 27.6703 4.49018 25.6014 4.13771 23.0151C3.61689 19.1935 4.66669 14.222 5.72516 12.153C7.7021 8.28857 10.3108 4.98365 11.5456 3.87714Z" fill="url(#paint0_linear_38_2860)" fill-opacity="0.85"/>
<path d="M36.2424 3.13818H10.9263L9.40944 10.6189C14.5377 10.6189 22.9751 10.6776 23.819 10.4777C25.0108 10.1954 22.1577 12.5243 19.377 15.6648C17.5648 17.7114 16.849 18.276 14.6099 21.8046C12.9307 24.4511 12.1541 26.1449 11.3597 28.1915C11.0493 28.9911 10.35 31.0643 10.35 32.7934C12.1139 33.3106 14.6099 32.9279 14.8256 32.9279C16.5601 32.7934 18.1306 32.2494 18.8164 31.8965C19.7196 26.0743 24.2524 19.6875 24.2524 19.6875C24.2524 19.6875 26.3872 16.615 27.7555 15.065C30.2473 12.2421 32.2577 10.7365 35.0866 9.031L36.2424 3.13818Z" fill="white"/>
<path d="M42.2734 16.2647C42.7791 17.2527 42.0928 18.5583 41.6595 18.8053H37.3979C36.146 18.9347 33.8615 19.1929 33.4254 19.3426C32.0892 19.8014 31.6306 21.0636 31.403 21.5576C31.1754 22.0516 31.8725 22.9338 33.4254 23.1808C34.8512 23.4076 34.6533 23.1808 35.0866 23.1808C35.7376 23.1808 36.6395 22.7221 37.1091 22.0516C37.8159 21.0425 37.6146 20.9225 37.9758 20.5696C38.4283 20.1275 38.9509 19.4757 39.7815 19.4757C40.2509 19.4757 41.0455 19.2672 41.3344 19.9345C41.4595 20.2233 41.2983 20.8519 41.0455 21.5576C40.3941 23.3762 39.5293 25.186 39.2563 25.7573L39.2398 25.792C38.9801 26.3356 37.948 29.8853 37.6146 30.9438C37.3979 31.6317 36.7359 32.0377 36.2424 32.3552C35.0866 32.4485 34.256 32.4964 33.7504 32.3552C33.0024 32.1464 33.6782 30.9086 33.6782 30.4498C33.6782 30.2381 35.484 25.7214 34.6533 26.4977C33.7369 27.3542 29.7774 31.1566 28.7305 31.8965C27.0332 33.0963 23.3013 35.0501 22.8079 35.2568C21.0383 35.9978 17.2102 37.3659 16.5601 37.6129C15.6869 37.9447 11.3597 37.9658 11.3597 37.9658C10.4929 37.2248 9.72284 36.8559 9.26504 36.0956C8.90386 35.4957 8.93997 35.4948 8.93997 34.8959C8.93997 34.3313 9.37335 33.6299 10.0595 33.8886L12.1139 34.2335C14.6099 34.2335 16.4386 33.8292 17.0526 33.6175C19.725 32.9824 21.4355 32.1435 22.1939 31.8965C22.6232 31.7567 26.6298 29.9223 27.6472 29.1089C28.4416 28.4738 31.5836 26.1096 31.078 25.792C30.5311 25.4485 29.1639 25.6156 28.7305 25.298C28.1696 24.8869 27.7398 24.108 27.6472 23.1808C27.3583 20.2873 28.875 18.9152 29.5612 18.1702C31.078 16.5234 34.377 15.9768 34.9783 15.8413C36.3868 15.5237 37.4341 15.5237 38.5175 15.5237C39.4318 15.5237 41.9844 15.7001 42.2734 16.2647Z" fill="white"/>
<path d="M21.905 27.2034C22.252 26.4729 22.3384 26.0508 22.8079 25.792C24.2765 25.8743 27.3005 25.792 27.6472 25.792C28.0806 25.792 27.5227 26.9564 27.1054 27.8739C26.9128 28.2973 26.6445 28.8266 26.347 28.8266H24.2524H22.3383C21.1466 28.8266 21.4355 28.1915 21.905 27.2034Z" fill="white"/>
<path d="M36.2424 3.13818H10.9263L9.40944 10.6189C14.5377 10.6189 22.9751 10.6776 23.819 10.4777C25.0108 10.1954 22.1577 12.5243 19.377 15.6648C17.5648 17.7114 16.849 18.276 14.6099 21.8046C12.9307 24.4511 12.1541 26.1449 11.3597 28.1915C11.0493 28.9911 10.35 31.0643 10.35 32.7934C12.1139 33.3106 14.6099 32.9279 14.8256 32.9279C16.5601 32.7934 18.1306 32.2494 18.8164 31.8965C19.7196 26.0743 24.2524 19.6875 24.2524 19.6875C24.2524 19.6875 26.3872 16.615 27.7555 15.065C30.2473 12.2421 32.2577 10.7365 35.0866 9.031L36.2424 3.13818Z" stroke="white"/>
<path d="M42.2734 16.2647C42.7791 17.2527 42.0928 18.5583 41.6595 18.8053H37.3979C36.146 18.9347 33.8615 19.1929 33.4254 19.3426C32.0892 19.8014 31.6306 21.0636 31.403 21.5576C31.1754 22.0516 31.8725 22.9338 33.4254 23.1808C34.8512 23.4076 34.6533 23.1808 35.0866 23.1808C35.7376 23.1808 36.6395 22.7221 37.1091 22.0516C37.8159 21.0425 37.6146 20.9225 37.9758 20.5696C38.4283 20.1275 38.9509 19.4757 39.7815 19.4757C40.2509 19.4757 41.0455 19.2672 41.3344 19.9345C41.4595 20.2233 41.2983 20.8519 41.0455 21.5576C40.3941 23.3762 39.5293 25.186 39.2563 25.7573L39.2398 25.792C38.9801 26.3356 37.948 29.8853 37.6146 30.9438C37.3979 31.6317 36.7359 32.0377 36.2424 32.3552C35.0866 32.4485 34.256 32.4964 33.7504 32.3552C33.0024 32.1464 33.6782 30.9086 33.6782 30.4498C33.6782 30.2381 35.484 25.7214 34.6533 26.4977C33.7369 27.3542 29.7774 31.1566 28.7305 31.8965C27.0332 33.0963 23.3013 35.0501 22.8079 35.2568C21.0383 35.9978 17.2102 37.3659 16.5601 37.6129C15.6869 37.9447 11.3597 37.9658 11.3597 37.9658C10.4929 37.2248 9.72284 36.8559 9.26504 36.0956C8.90386 35.4957 8.93997 35.4948 8.93997 34.8959C8.93997 34.3313 9.37335 33.6299 10.0595 33.8886L12.1139 34.2335C14.6099 34.2335 16.4386 33.8292 17.0526 33.6175C19.725 32.9824 21.4355 32.1435 22.1939 31.8965C22.6232 31.7567 26.6298 29.9223 27.6472 29.1089C28.4416 28.4738 31.5836 26.1096 31.078 25.792C30.5311 25.4485 29.1639 25.6156 28.7305 25.298C28.1696 24.8869 27.7398 24.108 27.6472 23.1808C27.3583 20.2873 28.875 18.9152 29.5612 18.1702C31.078 16.5234 34.377 15.9768 34.9783 15.8413C36.3868 15.5237 37.4341 15.5237 38.5175 15.5237C39.4318 15.5237 41.9844 15.7001 42.2734 16.2647Z" stroke="white"/>
<path d="M21.905 27.2034C22.252 26.4729 22.3384 26.0508 22.8079 25.792C24.2765 25.8743 27.3005 25.792 27.6472 25.792C28.0806 25.792 27.5227 26.9564 27.1054 27.8739C26.9128 28.2973 26.6445 28.8266 26.347 28.8266H24.2524H22.3383C21.1466 28.8266 21.4355 28.1915 21.905 27.2034Z" stroke="white"/>
</g>
<defs>
<filter id="filter0_d_38_2860" x="0" y="0" width="48" height="48" filterUnits="userSpaceOnUse" color-interpolation-filters="sRGB">
<feFlood flood-opacity="0" result="BackgroundImageFix"/>
<feColorMatrix in="SourceAlpha" type="matrix" values="0 0 0 0 0 0 0 0 0 0 0 0 0 0 0 0 0 0 127 0" result="hardAlpha"/>
<feOffset dy="4"/>
<feGaussianBlur stdDeviation="2"/>
<feComposite in2="hardAlpha" operator="out"/>
<feColorMatrix type="matrix" values="0 0 0 0 0 0 0 0 0 0 0 0 0 0 0 0 0 0 0.25 0"/>
<feBlend mode="normal" in2="BackgroundImageFix" result="effect1_dropShadow_38_2860"/>
<feBlend mode="normal" in="SourceGraphic" in2="effect1_dropShadow_38_2860" result="shape"/>
</filter>
<linearGradient id="paint0_linear_38_2860" x1="24" y1="0" x2="24" y2="39.7392" gradientUnits="userSpaceOnUse">
<stop stop-color="#0061A9"/>
<stop offset="0.626736" stop-color="#00A2F2"/>
<stop offset="1" stop-color="#3BC4FF"/>
</linearGradient>
</defs>
</svg>
